<?xml version="1.0" encoding="utf-8"?>
<!-- Generator: Adobe Illustrator 20.0.0, SVG Export Plug-In . SVG Version: 6.00 Build 0)  -->
<svg version="1.1" id="圖層_1" xmlns="http://www.w3.org/2000/svg" xmlns:xlink="http://www.w3.org/1999/xlink" x="0px" y="0px"
	 viewBox="0 0 29 30" style="enable-background:new 0 0 29 30;" xml:space="preserve">
<style type="text/css">
	.st0{fill:#E0061C;}
</style>
<path id="Shape" class="st0" d="M28,13.7c-0.2-0.1-0.3-0.3-0.3-0.5c-0.2-1.1-0.5-2.2-0.9-3.2c-0.1-0.2,0-0.3,0-0.5
	C27,9.1,27,8.5,26.7,8s-0.8-0.8-1.3-0.8c-0.2,0-0.3-0.1-0.5-0.3c-0.7-0.9-1.5-1.6-2.3-2.3c-0.2-0.2-0.3-0.4-0.3-0.5s0-0.1,0-0.2
	c-0.1-0.4-0.4-0.8-0.8-1s-0.8-0.3-1.3-0.2c-0.1,0-0.1,0-0.2,0.1c-0.2,0-0.4,0.1-0.5,0c-1-0.4-2.1-0.7-3.2-0.9
	c-0.2,0-0.3-0.1-0.5-0.3C15.6,1.2,15.1,1,14.5,1c-0.5,0-1,0.3-1.3,0.7C13.1,1.9,12.9,2,12.7,2c-1.1,0.2-2.2,0.5-3.2,0.9
	C9.3,3,9.1,2.9,9,2.9s-0.1,0-0.2-0.1C8.4,2.7,7.9,2.8,7.5,3S6.8,3.6,6.7,4c0,0.1,0,0.1,0,0.2c0,0.2-0.1,0.4-0.3,0.5
	C5.5,5.3,4.8,6.1,4.1,6.9C4,7.1,3.8,7.2,3.6,7.2c-0.5,0-1,0.4-1.3,0.8C2.1,8.5,2,9.1,2.3,9.6c0.1,0.2,0.1,0.3,0,0.5
	c-0.4,1-0.7,2.1-0.9,3.2c0,0.2-0.1,0.3-0.3,0.5c-0.4,0.3-0.7,0.8-0.7,1.3s0.3,1,0.7,1.3c0.2,0.1,0.3,0.3,0.3,0.5
	c0.2,1.1,0.5,2.2,0.9,3.2c0.1,0.2,0,0.3,0,0.5c-0.2,0.5-0.2,1,0.1,1.5C2.7,22.7,3.3,23,3.9,23c0.7,1,1.5,1.8,2.5,2.6
	c0.2,0.2,0.3,0.4,0.3,0.5s0,0.1,0,0.2c0.1,0.4,0.4,0.8,0.8,1s0.8,0.3,1.3,0.2c0.1,0,0.1,0,0.2-0.1c0.2,0,0.4-0.1,0.5,0
	c1,0.4,2.1,0.7,3.2,0.9c0.2,0,0.3,0.1,0.5,0.3c0.3,0.4,0.8,0.7,1.3,0.7s1-0.3,1.3-0.7c0.1-0.2,0.3-0.3,0.5-0.3
	c1.1-0.2,2.2-0.5,3.2-0.9c0.2-0.1,0.4,0,0.5,0s0.1,0,0.2,0.1c0.4,0.1,0.9,0,1.3-0.2s0.7-0.6,0.8-1c0-0.1,0-0.1,0-0.2
	c0-0.2,0.1-0.4,0.3-0.5c1-0.8,1.8-1.6,2.5-2.6c0.6,0,1.3-0.3,1.5-0.8c0.3-0.5,0.3-1,0.1-1.5c-0.1-0.2-0.1-0.3,0-0.5
	c0.4-1,0.7-2.1,0.9-3.2c0-0.2,0.1-0.3,0.3-0.5c0.4-0.3,0.7-0.8,0.7-1.3S28.4,14,28,13.7z M27.1,15.7c-0.3,0.2-0.5,0.6-0.6,1
	c-0.1,1-0.4,2-0.8,2.9c-0.2,0.4-0.1,0.8,0,1.1c0.1,0.2,0.1,0.5,0,0.7c-0.2,0.2-0.4,0.4-0.7,0.4c0,0-0.1,0-0.2,0
	c-0.2,0-0.3,0-0.4,0.2c-0.7,1-1.5,1.8-2.4,2.5c-0.3,0.2-0.5,0.6-0.6,1v0.1c0,0.2-0.2,0.4-0.4,0.5c-0.2,0.1-0.4,0.1-0.6,0.1h-0.1
	c-0.4-0.2-0.8-0.2-1.2,0c-0.9,0.4-2,0.6-2.9,0.8c-0.4,0-0.8,0.3-1,0.6c-0.3,0.4-1,0.4-1.3,0c-0.2-0.3-0.6-0.5-1-0.6
	c-1-0.1-2-0.4-2.9-0.8c-0.2-0.1-0.3-0.1-0.5-0.1S9,25.9,8.8,26c0,0,0,0-0.1,0c-0.2,0-0.4,0-0.6-0.1c-0.2-0.1-0.3-0.3-0.4-0.5v-0.1
	c0-0.4-0.2-0.8-0.6-1c-0.9-0.7-1.8-1.6-2.4-2.5c-0.1-0.1-0.3-0.2-0.4-0.2s-0.1,0-0.2,0c-0.3,0-0.6-0.2-0.7-0.4s-0.2-0.5,0-0.7
	c0.2-0.4,0.2-0.8,0-1.1c-0.4-0.9-0.7-1.9-0.8-2.9c0-0.4-0.3-0.7-0.6-1c-0.2-0.2-0.3-0.4-0.3-0.6c0-0.2,0.1-0.5,0.3-0.6
	c0.3-0.2,0.5-0.6,0.6-1c0.1-1,0.4-2,0.8-2.9c0.2-0.4,0.1-0.8,0-1.1c-0.1,0-0.1-0.3,0-0.5C3.5,8.6,3.8,8.5,4,8.4c0.4,0,0.8-0.2,1-0.6
	C5.6,7,6.3,6.3,7.1,5.7c0.3-0.2,0.5-0.6,0.6-1l0,0c0-0.2,0.2-0.4,0.4-0.5s0.4-0.1,0.6-0.1h0.1c0.4,0.2,0.8,0.2,1.2,0
	c0.9-0.4,2-0.6,2.9-0.8c0.4,0,0.7-0.3,1-0.6c0.3-0.4,1-0.4,1.3,0c0.2,0.3,0.6,0.5,1,0.6c1,0.1,2,0.4,2.9,0.8c0.4,0.2,0.7,0.1,1.2,0
	h0.1c0.2,0,0.4,0,0.6,0.1s0.3,0.3,0.4,0.5v0.1c0,0.4,0.2,0.8,0.6,1c0.8,0.6,1.5,1.3,2.1,2.1c0.2,0.3,0.6,0.5,1,0.6
	c0.2,0,0.5,0.2,0.6,0.4s0.2,0.5,0,0.7c-0.2,0.4-0.2,0.8,0,1.1c0.4,0.9,0.7,1.9,0.8,2.9c0,0.4,0.3,0.7,0.6,1c0.2,0.2,0.3,0.4,0.3,0.6
	C27.4,15.4,27.3,15.6,27.1,15.7z"/>
<ellipse id="Oval" class="st0" cx="7.1" cy="16.5" rx="1.1" ry="1.1"/>
<ellipse id="Oval-Copy-5" class="st0" cx="7.1" cy="13.3" rx="1.1" ry="1.1"/>
<circle id="Oval-Copy" class="st0" cx="10.6" cy="16.5" r="1.1"/>
<ellipse id="Oval-Copy-6" class="st0" cx="10.6" cy="13.3" rx="1.1" ry="1.1"/>
<ellipse id="Oval-Copy-2" class="st0" cx="14.1" cy="16.5" rx="1.1" ry="1.1"/>
<ellipse id="Oval-Copy-7" class="st0" cx="14.1" cy="13.3" rx="1.1" ry="1.1"/>
<ellipse id="Oval-Copy-3" class="st0" cx="17.6" cy="16.5" rx="1.1" ry="1.1"/>
<ellipse id="Oval-Copy-8" class="st0" cx="17.6" cy="13.3" rx="1.1" ry="1.1"/>
<ellipse id="Oval-Copy-4" class="st0" cx="21" cy="16.5" rx="1.1" ry="1.1"/>
<ellipse id="Oval-Copy-9" class="st0" cx="21" cy="13.3" rx="1.1" ry="1.1"/>
</svg>
