<?xml version="1.0" encoding="utf-8"?>
<!-- Generator: Adobe Illustrator 20.0.0, SVG Export Plug-In . SVG Version: 6.00 Build 0)  -->
<svg version="1.1" id="圖層_1" xmlns="http://www.w3.org/2000/svg" xmlns:xlink="http://www.w3.org/1999/xlink" x="0px" y="0px"
	 viewBox="0 0 23 23" style="enable-background:new 0 0 23 23;" xml:space="preserve">
<style type="text/css">
	.st0{fill:#E0061C;}
</style>
<path id="Shape" class="st0" d="M11.5,7.2H9C7.2,7.2,5.8,5.7,5.8,4S7.2,0.7,9,0.7s3.2,1.5,3.2,3.2v2.5C12.2,6.9,11.9,7.2,11.5,7.2z
	 M9,2.2C8,2.2,7.2,3,7.2,4S8,5.7,9,5.7h1.8V4C10.8,3,10,2.2,9,2.2z"/>
<path id="Shape_1_" class="st0" d="M14.4,7.2h-2.9c-0.4,0-0.7-0.3-0.7-0.7V3.6c0-2,1.6-3.6,3.6-3.6S18,1.6,18,3.6S16.4,7.2,14.4,7.2
	z M12.2,5.7h2.2c1.2,0,2.2-1,2.2-2.2s-1-2.2-2.2-2.2s-2.2,1-2.2,2.2C12.2,3.5,12.2,5.7,12.2,5.7z"/>
<path id="Shape_2_" class="st0" d="M19,23H4c-1,0-1.8-0.8-1.8-1.8V10.8c0-0.4,0.3-0.7,0.7-0.7s0.7,0.3,0.7,0.7v10.4
	c0,0.2,0.2,0.4,0.4,0.4h15c0.2,0,0.4-0.2,0.4-0.4V10.8c0-0.4,0.3-0.7,0.7-0.7s0.7,0.3,0.7,0.7v10.4C20.8,22.2,20,23,19,23z"/>
<path id="Shape_3_" class="st0" d="M21.2,11.5H1.8c-1,0-1.8-0.8-1.8-1.8V7.5c0-1,0.8-1.8,1.8-1.8h19.4c1,0,1.8,0.8,1.8,1.8v2.2
	C23,10.7,22.2,11.5,21.2,11.5z M1.8,7.2c-0.2,0-0.4,0.2-0.4,0.4v2.2c0,0.2,0.2,0.4,0.4,0.4h19.4c0.2,0,0.4-0.2,0.4-0.4V7.5
	c0-0.2-0.2-0.4-0.4-0.4L1.8,7.2L1.8,7.2z"/>
<path id="Shape_4_" class="st0" d="M11.5,23c-0.4,0-0.7-0.3-0.7-0.7V6.5c0-0.4,0.3-0.7,0.7-0.7s0.7,0.3,0.7,0.7v15.8
	C12.2,22.7,11.9,23,11.5,23z"/>
</svg>
