<?xml version="1.0" encoding="UTF-8"?>
<svg width="56px" height="41px" viewBox="0 0 56 41" version="1.1" xmlns="http://www.w3.org/2000/svg" xmlns:xlink="http://www.w3.org/1999/xlink">
    <!-- Generator: Sketch 43.2 (39069) - http://www.bohemiancoding.com/sketch -->
    <title>Shape</title>
    <desc>Created with Sketch.</desc>
    <defs></defs>
    <g id="m" stroke="none" stroke-width="1" fill="none" fill-rule="evenodd">
        <g id="rule_pc" transform="translate(-357.000000, -1060.000000)" fill="#E0061C">
            <g id="Group-4" transform="translate(340.000000, 432.000000)">
                <g id="Group-13" transform="translate(0.000000, 603.411736)">
                    <g id="Group-14">
                        <path d="M70.962901,25 L36.3781736,25 C35.5338516,25 34.8518992,25.6819524 34.8518992,26.5262744 L34.8518992,33.8112576 L22.7066522,33.8112576 C22.1004723,33.8112576 21.5484157,34.1792954 21.2994489,34.7421767 L17.619071,43.3261169 C17.5432986,43.5101358 17.5,43.715804 17.5,43.9214722 L17.5,59.5414289 C17.5,60.3857508 18.1819524,61.0677032 19.0262744,61.0677032 L22.0030506,61.0677032 C22.685003,63.5790199 24.9798268,65.4408581 27.7076363,65.4408581 C30.4354458,65.4408581 32.7302696,63.5790199 33.412222,61.0677032 L51.3378272,61.0677032 C52.0197796,63.5790199 54.3146034,65.4408581 57.0424129,65.4408581 C59.7702224,65.4408581 62.0650463,63.5790199 62.7469986,61.0677032 L70.9737256,61.0677032 C71.8180476,61.0677032 72.5,60.3857508 72.5,59.5414289 L72.5,26.5262744 C72.4891754,25.6819524 71.807223,25 70.962901,25 Z M27.7076363,62.3883094 C26.1380634,62.3883094 24.8499311,61.1110018 24.8499311,59.5306042 C24.8499311,57.9502067 26.1272387,56.672899 27.7076363,56.672899 C29.2772092,56.672899 30.5653415,57.9502067 30.5653415,59.5306042 C30.5653415,61.1110018 29.2772092,62.3883094 27.7076363,62.3883094 Z M34.8518992,58.0151545 L33.4013974,58.0151545 C32.7302696,55.4930132 30.4246211,53.631175 27.6968117,53.631175 C24.9690022,53.631175 22.6741783,55.4930132 21.9922259,58.0151545 L20.5525487,58.0151545 L20.5525487,48.5111199 L34.8518992,48.5111199 L34.8518992,58.0151545 L34.8518992,58.0151545 Z M34.8518992,45.4477465 L20.5525487,45.4477465 L20.5525487,44.2353867 L23.7133438,36.8638063 L34.8518992,36.8638063 L34.8518992,45.4477465 Z M57.0315883,62.3883094 C55.4620154,62.3883094 54.1738831,61.1110018 54.1738831,59.5306042 C54.1738831,57.9502067 55.4511907,56.672899 57.0315883,56.672899 C58.6011612,56.672899 59.8892934,57.9502067 59.8892934,59.5306042 C59.8892934,61.1110018 58.6011612,62.3883094 57.0315883,62.3883094 Z M69.4366266,58.0151545 L62.736174,58.0151545 C62.0650463,55.4930132 59.7593978,53.631175 57.0315883,53.631175 C54.3037788,53.631175 52.0089549,55.4930132 51.3270026,58.0151545 L37.9044479,58.0151545 L37.9044479,51.9208817 L69.425802,51.9208817 L69.425802,58.0151545 L69.4366266,58.0151545 Z M69.4366266,48.868333 L37.9044479,48.868333 L37.9044479,43.0446762 L40.9569967,43.0446762 C41.8013186,43.0446762 42.483271,42.3627239 42.483271,41.5184019 C42.483271,40.6740799 41.8013186,39.9921275 40.9569967,39.9921275 L37.9044479,39.9921275 L37.9044479,36.9395788 L44.02037,36.9395788 C44.864692,36.9395788 45.5466444,36.2576265 45.5466444,35.4133045 C45.5466444,34.5689825 44.864692,33.8870301 44.02037,33.8870301 L37.9152726,33.8870301 L37.9152726,28.0525487 L69.4474513,28.0525487 L69.4474513,48.868333 L69.4366266,48.868333 Z" id="Shape" transform="translate(45.000000, 45.220429) scale(-1, 1) translate(-45.000000, -45.220429) "></path>
                    </g>
                </g>
            </g>
        </g>
    </g>
</svg>