<?xml version="1.0" encoding="utf-8"?>
<!-- Generator: Adobe Illustrator 20.1.0, SVG Export Plug-In . SVG Version: 6.00 Build 0)  -->
<svg version="1.1" id="Red_Disk_on_white_w_drop_shadow"
	 xmlns="http://www.w3.org/2000/svg" xmlns:xlink="http://www.w3.org/1999/xlink" x="0px" y="0px" viewBox="0 0 181.5 56.9"
	 style="enable-background:new 0 0 181.5 56.9;" xml:space="preserve">
<style type="text/css">
	.st0{fill:#E1041B;}
</style>
<path class="st0" d="M78.6,56.9c-4.3-3.1-9.6-4.4-14.4-4.2c-4.9,0.2-7,3.8-7,3.8c-2.2-3.8-6.5-6.2-13.2-6.1
	c-10.8,0.1-21.5,5.1-30,5.1C5.8,55.6-0.2,50.4,0,41.3C0.3,25.4,13.8,11,23.9,4.5c5.8-3.7,10.6-4.8,13.8-4.5C40,0.3,42.8,3,41.1,6.9
	c-2.6,5.8-6.1,5.3-6,2.5c0.1-1.8,1.3-2.9,2.2-3.5c0.6-0.4,1.6-0.5,2.1-0.5c0.5-0.4,0.9-3.6-3.3-2.5c-4.1,1-9.1,5.1-13.9,10.4
	c-4.8,5.3-12.2,15.2-14,25.7c-0.9,4.8-0.3,13.7,11.2,13.6c9.7-0.1,24.1-6.5,37.3-6.4c5.1,0,9.6,1.4,13.1,3.6
	C73.1,51.8,77.2,54.8,78.6,56.9z M81.8,28h2c0,0-10,14.4-15.6,13.8c-3.2-0.4-2.2-4.3-2.2-4.3s-4.4,5.2-8.5,4.2
	c-3.7-0.9-1.3-7.1-1.3-7.1c-0.4,0.2-8.4,9.2-14,7c-5.9-2.3-2.8-9.8-1.7-12.1c0.9-1.9,2-3.8,2-3.8s-0.9,0.3-1.5,0.4
	c-0.6,0.1-1.4,0.3-1.4,0.3S36.7,31,35,33.2c-1.7,2.3-8.9,10-13.2,8.5c-4.2-1.5-3.2-7.5-0.8-12.2c3.9-7.7,13.1-17.1,18.6-15.7
	c5.6,1.4,1,10.5,1,10.5s1.1,0.1,3.8-1.7c3.8-2.6,8.9-9.7,14.4-8.8c2.6,0.4,5,3,1.7,8c-1.1,1.6-2.8,3.1-4.2,1.6
	c-0.8-0.9-0.1-2.5,0.8-3.6c1.2-1.6,3-1.4,3-1.4s0.9-2.1-1.4-2c-1.9,0-6.6,4.4-9.2,8.8c-2.4,4-6.1,10.9-2.4,12.4
	c3.4,1.4,9.9-6.3,12.9-10.4c3-4,9.8-13.2,15.6-13.6c2-0.1,3.2,1.7,3.2,1.7l0.7-1.1H85c0,0-10.8,18.1-11.7,19.4
	c-0.7,1.1-1.5,3.5,0.9,2.1C76.7,34.5,81.8,28,81.8,28z M37.3,26.2c-0.1,0-1.5-0.5-3-1.4c-1.4-0.9-2.1-2.2-2.1-2.3
	c0-0.1-0.1,0-0.2,0.1C32,22.6,31.7,23,29.6,26c-2,3-5.1,9.2-2.2,10.2c1.8,0.7,4.9-2.5,6.5-4.6c1.5-2,3.4-5,3.4-5.2
	C37.4,26.2,37.4,26.2,37.3,26.2z M39.5,16.6c-1.5-1.1-5.3,1.5-5.3,4.2c0,2.8,3.5,3.6,3.9,3.6c0,0,0.4,0.1,0.6-0.2
	c0.1-0.2,0.6-1.1,1.1-2.5C40.3,20.3,40.9,17.6,39.5,16.6z M68.8,31.6c2.3-3.2,8.7-14.3,8.7-14.3s-0.1-0.8-0.9-0.8
	c-0.9,0-2.3,0.3-5.3,3.9c-2.9,3.7-5.2,6.6-6.9,9.6c-1.8,3.3-2.6,5.7-1.6,6.3c0.3,0.2,0.7,0.2,1.1,0.1c0.7-0.2,1.6-0.8,2.8-2.3
	C67.3,33.5,68,32.6,68.8,31.6z M94.5,14.4h-5.4l-3.1,5h5.4L94.5,14.4z M166,51.5c-0.5,0-1,0.2-1.4,0.6c-0.4,0.4-0.6,0.8-0.6,1.4
	c0,0.6,0.2,1,0.6,1.4c0.4,0.4,0.8,0.6,1.4,0.6c0.5,0,1-0.2,1.4-0.6c0.4-0.4,0.6-0.9,0.6-1.4c0-0.5-0.2-1-0.6-1.4
	C167,51.7,166.5,51.5,166,51.5z M168.3,53.4c0,0.6-0.2,1.2-0.7,1.6c-0.4,0.5-1,0.7-1.6,0.7c-0.6,0-1.2-0.2-1.6-0.7
	c-0.4-0.4-0.7-1-0.7-1.6c0-0.6,0.2-1.2,0.7-1.6c0.4-0.4,1-0.7,1.6-0.7c0.6,0,1.2,0.2,1.6,0.7C168,52.3,168.3,52.8,168.3,53.4z
	 M166.6,52.9c0-0.2-0.1-0.3-0.2-0.4c-0.1-0.1-0.3-0.1-0.5-0.1h-0.4v0.9h0.4c0.2,0,0.3,0,0.4,0C166.5,53.3,166.6,53.1,166.6,52.9z
	 M165,52.2h0.9c0.3,0,0.5,0,0.7,0.1c0.3,0.1,0.4,0.3,0.4,0.6c0,0.2-0.1,0.4-0.3,0.5c-0.1,0.1-0.2,0.1-0.4,0.1c0.2,0,0.3,0.1,0.4,0.2
	c0.1,0.1,0.1,0.3,0.1,0.4v0.2c0,0.1,0,0.1,0,0.2c0,0.1,0,0.1,0,0.1l0,0h-0.4c0,0,0,0,0,0c0,0,0,0,0,0l0-0.1v-0.2
	c0-0.3-0.1-0.5-0.2-0.6c-0.1-0.1-0.3-0.1-0.5-0.1h-0.4v1H165V52.2z M174.9,5.4c-4,2.6-9.6,4.9-15,4.4c-1.4,1.4-2.8,3-4.3,4.8
	c9.3,1.8,17.4-3.9,21.8-8.8c2.7-3.1,4-5.8,4-5.8S178.9,2.9,174.9,5.4z M159,47.7c-0.8,1.2-1.6,3.6,0.9,2.1c3.1-1.8,7.5-8.5,7.5-8.5
	h2c0,0-2.6,4.2-6.1,8c-3.1,3.5-7,6.6-9.7,6.3c-3.2-0.4-2.2-4.5-2.2-4.5s-4.5,4.8-7.6,4.5c-4.2-0.5-2.9-5.7-2.9-5.7s-4.8,5.9-8,5.7
	c-5.1-0.3-3.8-6.5-2.4-10.9c0.8-2.3,1.5-4.2,1.5-4.2s-0.5,0.1-1.6,0.3c-0.6,0.1-1.6,0.1-1.6,0.1s-2.1,3.7-3.8,6
	c-1.7,2.3-8.9,10-13.2,8.5c-3.9-1.4-2.6-7.4-0.3-12.2c3.3-7,12.7-17,18.1-15.7c5.6,1.4,0.1,11.6,0.1,11.6s0,0,0.1,0.1
	c0.1,0,0.4,0.1,1.1-0.1c1.1-0.2,2.1-0.6,2.1-0.6s5.6-11.8,11.9-19.5c6.2-7.7,18.6-21,23.5-17.8c1.2,0.8,0.7,3.5-1,6.8
	c-0.7,0.2-1.4,0.4-2.2,0.6c1.1-1.9,1.8-3.6,2-4.7c0.7-4-8.6,4.4-15.2,13.5c-6.7,9.1-10.6,17.3-10.6,17.3s1.3-0.8,3.4-2.4
	c2.2-1.8,5.2-4.5,8.5-7.9c2.2-2.3,4.8-5.1,7.2-8.3c0.7,0,1.4-0.1,2.1-0.2c-2.7,3.6-5.5,6.9-7.9,9.4c-2.6,2.7-5.5,5.6-8,7.7
	c-4,3.3-7,5.2-7,5.2s-5.8,11.7-2.7,12.5c1.9,0.4,5.5-5.2,5.5-5.2s4.8-7.3,7.7-10.6c3.9-4.5,7.3-7.1,10.7-7.1c2,0,3.1,2.1,3.1,2.1
	l0.9-1.4h5.7C170.5,28.1,159.8,46.3,159,47.7z M126.8,40.5c-0.1,0-1.3-0.6-2.6-1.7c-1.3-1.1-1.9-2.3-2-2.4c-0.1-0.1-0.1,0-0.2,0.1
	c-0.1,0.1-0.3,0.3-2.3,3.3c-2,3-5.2,9.2-2.3,10.2c1.8,0.7,4.8-2.5,6.5-4.6c1.5-2,3-4.5,3-4.6C127,40.6,126.9,40.6,126.8,40.5z
	 M129.7,35.5c0.5-1.4,1.2-4.1-0.2-5.2c-1.5-1.1-5.3,1.5-5.3,4.2c0,2.8,2.7,4,3.4,4.2c0.4,0.1,0.5,0.1,0.7-0.2
	C128.3,38.3,129.1,36.8,129.7,35.5z M162.6,31.6c0.1-0.2,0.2-0.4,0.2-0.4s-0.1-0.8-0.8-0.8c-0.9,0-2.1,0.1-5.3,3.6
	c-3.2,3.5-5.1,6.5-6.7,9.6c-1.8,3.3-2.5,5.8-1.5,6.4c0.3,0.2,0.7,0.2,1.1,0.1c0.7-0.2,1.5-0.8,2.7-2.2c0.6-0.7,1.2-1.6,2-2.6
	C156.3,42.4,161.5,33.4,162.6,31.6z M174.9,5.4c-4,2.6-9.6,4.9-15,4.4c-1.4,1.4-2.8,3-4.3,4.8c9.3,1.8,17.4-3.9,21.8-8.8
	c2.7-3.1,4-5.8,4-5.8S178.9,2.9,174.9,5.4z M148.8,12.2c-4.4-2.3-7.6-5-11-6.7c-3.2-1.6-5.3-2.3-7.8-2c-0.4,0.1-1.1,0.3-1.1,0.3
	s1.3,4.5-3.9,12.2c-5.4,7.7-10.2,7.7-11.6,5.5c-1.4-2.2,0.4-6.8,3.5-10.9c3.3-4.2,9-7.8,9-7.8s-1.8-1.1-6.3,1.4
	c-4.4,2.5-11.9,8.4-18.9,18.3S92.3,38,91.3,42.3c-1,4.3-0.1,8.9,4.7,8.9c4.8,0,10.3-7.3,11.9-9.8c2.9-4.7,4.8-12,0.8-11
	c-2,0.5-3.5,2.7-4.5,4.7c-1,2.1-1.4,4.2-1.4,4.2s-1.7,0.6-3.9,2.3c-2.2,1.7-3.7,3.2-3.7,3.2s0-3.4,2.8-9c2.7-5.6,7.8-8.1,10.6-8.4
	c2.6-0.2,5.9,2,3.1,10c-2.8,8.1-11.2,17.9-20,18c-8.1,0.1-13.4-10.2-2.1-28.3c12.5-20,27.2-26.1,31.9-26.8c4.8-0.7,6.3,1.4,6.3,1.4
	s4-1.8,9.1-1.5c5.8,0.4,10.3,4.5,16.2,7.4C151.6,9.2,150.1,10.7,148.8,12.2z M127.1,4.3c0,0-3.4,1.4-7.4,5.7
	c-4,4.4-6.3,9.3-4.6,10.6c0.7,0.5,2.2,0.6,4.9-1.9c2.1-1.9,4.3-4.4,5.8-8C127.7,6.4,127.1,4.4,127.1,4.3z"/>
</svg>
