<?xml version="1.0" encoding="UTF-8"?>
<svg width="39px" height="143px" viewBox="0 0 39 143" version="1.1" xmlns="http://www.w3.org/2000/svg" xmlns:xlink="http://www.w3.org/1999/xlink">
    <!-- Generator: Sketch 43.2 (39069) - http://www.bohemiancoding.com/sketch -->
    <title>coke</title>
    <desc>Created with Sketch.</desc>
    <defs>
        <rect id="path-1" x="0" y="0" width="60" height="143"></rect>
        <polygon id="path-3" points="19.2282059 0.370200159 38.4561697 0.370200159 38.4561697 141.597296 19.2282059 141.597296 0.000242078519 141.597296 0.000242078519 0.370200159"></polygon>
    </defs>
    <g id="m" stroke="none" stroke-width="1" fill="none" fill-rule="evenodd">
        <g id="34.rule" transform="translate(-145.000000, -950.000000)">
            <g id="Group-8" transform="translate(75.000000, 931.000000)">
                <g id="coke" transform="translate(60.000000, 19.000000)">
                    <g id="Page-1">
                        <mask id="mask-2" fill="white">
                            <use xlink:href="#path-1"></use>
                        </mask>
                        <g id="Mask"></g>
                        <g mask="url(#mask-2)">
                            <g transform="translate(10.000000, 0.000000)">
                                <g id="Group-3" stroke-width="1" fill="none" transform="translate(0.000000, 0.482796)">
                                    <mask id="mask-4" fill="white">
                                        <use xlink:href="#path-3"></use>
                                    </mask>
                                    <g id="Clip-2"></g>
                                    <path d="M19.228852,141.597296 C26.0999218,141.597296 33.5804463,140.50802 35.8367075,139.228527 C39.6050985,137.090066 38.4995561,128.753739 37.4579425,125.4825 C36.7240396,123.172587 35.1010999,119.246248 35.107919,111.076255 C35.1172952,102.307458 37.984716,85.3456376 38.1125736,84.2930408 C38.3282268,82.5401345 38.7578285,80.7914932 37.8014533,80.3931442 C38.9734817,79.5222356 38.035859,57.8936751 35.9850224,57.0645632 C37.0240789,57.0645632 36.6567012,54.6420553 36.4384908,52.9735956 C36.0429845,49.9130468 33.3417787,42.6975557 31.0224411,34.8738786 C29.9867941,31.380008 28.3655592,26.1127591 27.8362286,22.2068916 C27.3444028,18.5816596 27.4483937,13.9558636 27.4483937,11.9487646 C28.1379726,11.260397 28.4030641,10.9507595 28.3740831,9.86404295 C28.3425448,8.73382357 26.8994582,5.97779427 26.8994582,5.58285724 C26.8994582,5.1879202 26.9148012,4.71365456 27.4219698,4.25047786 C27.9853958,3.73441543 27.9555624,2.83962288 27.7109281,2.10434054 C27.4151507,1.21637195 26.3189845,0.949384279 25.6890725,0.797551034 C25.111156,0.65765973 22.2173113,0.370200159 19.228852,0.370200159 C16.2395403,0.370200159 13.3456956,0.65765973 12.7669267,0.797551034 C12.1378671,0.949384279 11.0425533,1.21637195 10.7459235,2.10434054 C10.5004369,2.83962288 10.4723082,3.73441543 11.0357342,4.25047786 C11.5429028,4.71365456 11.556541,5.1879202 11.556541,5.58285724 C11.556541,5.97779427 10.1143068,8.73382357 10.0836209,9.86404295 C10.0537875,10.9507595 10.318879,11.260397 11.0076055,11.9487646 C11.0076055,13.9558636 11.1133012,18.5816596 10.6214754,22.2068916 C10.0921448,26.1127591 8.46920508,31.380008 7.43355817,34.8738786 C5.11422051,42.6975557 2.41386708,49.9130468 2.01836076,52.9735956 C1.80100277,54.6420553 1.43362514,57.0645632 2.47097682,57.0645632 C0.421844986,57.8936751 -0.517482504,79.5222356 0.655398282,80.3931442 C-0.300124509,80.7914932 0.12862479,82.5401345 0.344278015,84.2930408 C0.471283275,85.3456376 3.33955642,102.307458 3.34893264,111.076255 C3.35489933,119.246248 1.73281203,123.172587 0.998056767,125.4825 C-0.0435568373,128.753739 -1.1473945,137.090066 2.61929169,139.228527 C4.87555291,140.50802 12.3560775,141.597296 19.228852,141.597296" id="Fill-1" fill="#E0061C" mask="url(#mask-4)"></path>
                                </g>
                                <polygon id="Fill-4" fill="#FEFEFE" points="20.9868946 63.4295323 19.2454735 63.4295323 18.3581414 65.2319123 20.0995626 65.2319123"></polygon>
                                <path d="M12.8576204,70.0564563 C12.4706379,70.7780907 11.7972543,71.7923027 11.3437859,71.6822662 C10.9201509,71.5807597 11.0991516,70.5034261 11.5662582,69.3058201 C11.9387501,68.3547298 12.8397203,66.7681577 13.755181,65.4170124 C14.5981891,64.1699326 15.3559587,63.9541247 15.4667687,64.5153959 C15.4667687,64.5153959 13.3034174,69.2213735 12.8576204,70.0564563 M5.11370908,67.9836766 C4.716498,67.9546748 4.41049204,67.6040935 4.38065859,67.3678137 C4.25365333,66.2887741 4.96965614,65.4084824 5.20320943,65.4733101 C5.6447445,65.5927295 5.33959092,67.0888841 5.11370908,67.9836766 M3.56407444,71.7197981 C3.42002149,71.7197981 3.12765368,70.6347874 4.05930971,67.6910991 C4.23745803,68.1568348 4.53238299,68.4357644 4.94578938,68.5637137 C4.56221644,70.1374909 3.90758531,71.7197981 3.56407444,71.7197981 M17.8832782,63.4295323 L15.9892803,63.4295323 C15.9244991,63.5643056 15.8835846,63.7459937 15.7923795,63.8355583 C13.8838911,61.47276 11.2747427,66.493493 10.4351442,68.0067075 C9.59639807,69.517363 7.92828201,72.740834 7.00003552,72.0772033 C6.13571785,71.4604873 6.95571154,68.8076705 7.51487563,67.5204999 C7.99732514,66.4124584 9.3398304,64.2424372 9.98423292,64.6177554 C10.2254577,64.7576467 10.197329,65.1329648 10.108681,65.3402428 C9.19236792,65.4170124 8.79515684,66.903784 9.26226343,67.2705722 C9.77795593,67.6783041 10.3362676,66.5924405 10.5800495,65.4767221 C10.7402978,64.7499697 10.5970972,64.0718381 10.130843,63.8500592 C8.74571855,63.1923995 7.32990824,65.5893175 7.06396434,66.0669952 C6.80483952,66.5284659 6.22351343,67.7414258 5.50069155,67.9512628 C5.79987844,66.696506 6.16640368,64.9222749 5.2918574,64.6510222 C4.24001518,64.3226188 3.31517823,66.9327859 2.99041981,68.0442393 C2.12524975,71.0083996 2.49092262,73.136624 3.05349625,73.2526314 C3.74307514,73.3942287 4.86822241,70.315767 5.34470522,68.5944216 C5.5143297,68.5509188 5.7419163,68.4357644 5.90386932,68.308668 C5.35237668,69.9839517 5.32083846,71.0066936 5.32254323,71.5773478 C5.32595277,72.6452984 5.85528342,73.3814338 6.19027044,73.4633214 C7.51828517,73.7883128 8.49426518,72.130089 9.28953973,71.0655503 C9.02103867,72.6069136 9.26311581,73.3848458 9.86404674,73.5648279 C10.8221267,73.8514345 11.66343,72.8090736 12.1910559,72.0729383 C12.1569605,72.6623584 12.2865229,73.3788748 12.6990769,73.5742108 C13.1772645,73.8019607 13.8395671,73.4385845 14.1847827,73.1715968 C15.2315106,72.3603979 16.6933497,70.3737707 17.7665015,68.4460003 L17.1076085,68.4460003 C15.7310078,70.8923922 14.6425131,71.6899432 14.3706025,71.5739358 C14.2759878,71.532992 14.1745541,71.3393619 14.3092308,70.9768387 C14.3910597,70.7507949 17.8832782,63.4295323 17.8832782,63.4295323" id="Fill-6" fill="#FEFEFE"></path>
                                <path d="M10.5867834,75.2477885 C6.60444397,74.543214 4.29703969,76.561402 2.88890084,76.0078077 C1.72880582,75.551455 1.46200954,73.2185116 1.88990645,69.2290504 C2.11664067,67.10765 2.83434825,64.3567387 3.52307475,63.0678621 C4.0686007,62.0510911 4.58003128,61.3405457 4.95934229,61.4599651 C5.25256248,61.5529416 5.22272903,61.8497841 5.1212953,62.0988589 C4.47604039,62.3027249 4.17685351,63.9080629 4.58003128,64.0249233 C4.91331353,64.1213118 5.32075323,63.2452852 5.51935877,62.2063364 C5.61823534,61.6877149 5.52788261,60.8986939 5.14004776,60.6897099 C4.67976024,60.4440471 3.69781353,61.266335 2.98010596,62.674631 C2.06123569,64.4795701 1.37250919,67.0564702 1.11594151,69.0610103 C0.665882609,72.5830298 1.09718906,76.0393686 2.57948534,76.7354131 C3.37305512,77.1098782 7.70146255,74.6148657 10.1009243,78.7271582 C11.1655523,76.2816194 15.4112785,78.1863589 16.7128693,79.2526036 C16.6284832,79.0222947 13.7619149,75.8082067 10.5867834,75.2477885" id="Fill-8" fill="#FEFEFE"></path>
                                <path d="M35.0961561,73.8516051 C34.8958458,74.4043463 34.6264923,75.1959264 34.3545817,75.1140388 C34.1585333,75.0551821 34.2599671,74.2414241 34.415101,73.2928928 C34.5395491,72.5439626 35.0040986,71.2039062 35.4669432,70.1726343 C35.9434261,69.1089486 36.2042556,69.1046837 36.2767083,69.5448295 C36.2767083,69.5448295 35.4200621,72.9576655 35.0961561,73.8516051 L35.0961561,73.8516051 Z M30.4591855,72.3801874 C29.8054068,72.3426556 29.513039,71.4000952 29.4559292,71.055485 C29.2965333,70.0779518 30.1949464,69.2164261 30.6049432,69.5175336 C31.0498878,69.844231 30.6867721,71.4845418 30.4591855,72.3801874 L30.4591855,72.3801874 Z M28.2242339,76.1026609 C27.6292697,75.9840944 27.5951743,74.1015328 29.0314418,71.441892 C29.2104425,71.9920743 29.7107921,72.7947433 30.3168373,72.865542 C29.932412,74.3651085 28.838803,76.2271982 28.2242339,76.1026609 L28.2242339,76.1026609 Z M37.1307974,72.4364851 C36.6457907,74.1825674 36.0951505,74.9545286 35.9715547,74.9673235 C35.9204117,74.9724415 35.8522209,74.7830764 35.9178545,74.4998818 C36.3031322,72.8706599 37.0131683,69.7068987 37.1947262,68.5690023 L36.5324236,68.624447 C36.5085568,68.7302185 36.4582662,68.9758813 36.422466,69.0466799 C35.6229296,66.9303975 34.1483047,70.8243231 33.6939839,72.1686444 C33.3018871,73.3381016 32.6557798,75.8416442 32.1648065,75.678722 C31.9406294,75.6053643 32.1315635,73.9249627 32.5193984,71.7097327 C33.7971224,70.2186961 34.8114597,67.7313605 35.2044089,66.2710317 C35.3194808,65.8402689 35.4166526,65.3967111 35.4976291,64.9744782 C35.3868191,65.0375999 35.2436185,65.1032806 35.1234324,65.1425184 C35.0492749,65.5195425 34.967446,65.8778007 34.8813552,66.1899972 C34.5753493,67.3023036 33.700803,69.4057912 32.6634513,70.8661199 C33.461283,66.5456964 34.838736,60.9167774 35.3791477,61.1590282 C35.5249054,61.2264148 35.5376911,61.8832216 35.4643861,62.7438943 C35.5607055,62.6790666 35.686006,62.5801191 35.785735,62.4726416 C35.8198303,61.2545637 35.7362967,60.4604246 35.2981711,60.4186278 C34.4415249,60.3401522 32.9174618,64.8866196 31.9670533,69.3529054 C31.7548096,70.3398215 31.5459755,71.2772639 31.3695319,72.1763214 C31.1862693,72.2906228 31.0021543,72.3708044 30.8231536,72.4049242 C31.1206357,71.1510205 31.4061845,69.0927417 30.5657336,68.7276595 C29.2880095,68.1740653 27.8116799,70.7654664 27.2968398,71.9707494 C25.6321333,75.8433501 25.8503437,77.887981 26.8467809,78.0986709 C28.7569741,78.4978729 30.2256322,74.6380671 30.702115,72.9141627 C30.8939015,72.8817489 31.0831308,72.8126562 31.2706554,72.7222387 C30.8069583,75.1882494 30.6424481,77.0639871 31.464999,77.3625356 C32.0889443,77.5902855 32.7324944,76.0412452 33.0393528,75.2001913 C32.9830954,76.4114453 33.2541536,76.7714095 33.523507,76.9070359 C33.9565183,77.1194318 34.6537686,75.9243847 34.8549313,75.3383767 C34.8182788,75.8254372 34.9009601,76.5265997 35.1677563,76.6374892 C35.8973973,76.9394497 37.0626066,73.9019318 37.4197556,72.4313671 L37.1307974,72.4364851 Z" id="Fill-10" fill="#FEFEFE"></path>
                                <path d="M29.3492107,61.7726733 C29.5350305,62.5872843 29.3492107,63.7968323 29.0917906,64.4775229 C28.6724176,65.5744754 28.0774533,66.664604 27.3929887,66.5707745 C26.2354509,66.4095583 27.4995368,62.5898433 29.3492107,61.7726733 M25.3106139,68.4106863 C23.7660936,68.6418482 22.2062303,70.8314883 21.9351721,74.713472 C22.5531507,73.8698592 23.1208387,73.1277528 23.9962373,72.6304563 C23.9962373,71.4601461 24.9986413,69.1272027 25.9038734,69.4206333 C26.7213099,69.684209 26.031731,72.4487682 25.2739614,73.897155 C24.6005778,75.1877376 23.2188629,77.2971961 21.8899958,77.0105895 C20.9762398,76.8152535 20.5048713,75.6278834 20.533,74.6384083 C20.6702338,70.0305253 23.8777559,65.2921338 24.91596,63.8266871 C25.9558688,62.3561224 27.4125936,61.1201316 28.3723783,60.9486794 C28.6979891,60.8915287 28.9340995,60.9955942 29.0994621,61.2020192 C26.7809768,62.3783003 25.6975964,66.5929523 27.1475021,67.0868369 C28.0024435,67.3768554 28.9349519,66.2270172 29.4489397,64.7112437 C29.7719933,63.7610064 29.9271272,62.5889903 29.6910168,61.6600779 C29.7822219,61.640459 29.8725746,61.6242521 29.9654845,61.6208401 C30.9593646,61.5730723 31.8466967,63.1221126 32.7954004,64.1039107 C32.9726963,63.5494635 33.1508446,63.034254 33.3281406,62.5693714 C32.3427843,61.8153231 31.0625031,60.7200766 29.8589365,60.9410025 C29.7217026,60.9674453 29.5870259,61.0075361 29.4557587,61.0527449 C29.1540147,60.5042686 28.6374698,60.1289505 27.8242952,60.0871537 C26.9855491,60.0453569 25.1750848,60.7985522 23.7464887,62.3220026 C20.3608183,65.9361456 18.8921602,69.5733195 18.1787146,72.4564452 C17.5598836,74.9591347 18.1062619,77.5437119 19.7829018,78.4035316 C21.5677945,79.322208 23.4234351,77.6716613 24.5835301,76.1294449 C25.0787654,75.4700792 25.4444383,74.7347969 25.7444775,74.1453768 C26.0470739,73.5568097 26.4758232,72.3626157 26.6471525,71.2178953 C26.8815582,69.6338822 26.5201472,68.2289982 25.3106139,68.4106863" id="Fill-12" fill="#FEFEFE"></path>
                                <path d="M34.363617,64.9285017 C36.4715634,65.0504801 36.8039932,61.9208387 36.9727653,60.6746119 C36.5167397,62.2799499 35.8228989,63.2404231 34.8170854,63.259189 C34.6704754,63.7573385 34.5161938,64.3228747 34.363617,64.9285017" id="Fill-14" fill="#FEFEFE"></path>
                                <path d="M37.4976636,75.099026 C37.5513638,75.0828191 37.5820496,75.0555233 37.5820496,74.9497518 C37.5811972,74.8508043 37.5198256,74.8618932 37.4746492,74.8755412 L37.3902631,74.899425 L37.3936727,75.1297339 L37.4976636,75.099026 Z M37.3970822,75.6927111 L37.2786008,75.7268309 L37.270077,74.7697697 L37.4780587,74.71006 C37.6221117,74.6682632 37.7064977,74.713472 37.7090549,74.9335449 C37.7099073,75.110115 37.6519451,75.1902966 37.5777877,75.2227104 L37.722693,75.5988816 L37.5820496,75.6398254 L37.44993,75.2747432 L37.3936727,75.2926561 L37.3970822,75.6927111 Z M37.4746492,74.509606 C37.2675198,74.5693157 37.1047144,74.8891891 37.1081239,75.301186 C37.1123859,75.708918 37.2803056,75.9358149 37.4840254,75.8735462 L37.4840254,75.8752522 C37.6851881,75.8155425 37.8531078,75.4905511 37.8496983,75.0828191 C37.8437316,74.6742342 37.6732547,74.4507493 37.4746492,74.509606 L37.4746492,74.509606 Z M37.4865826,76.0518223 C37.2121148,76.1328569 36.9632186,75.905107 36.9598091,75.3446888 C36.9555472,74.7808586 37.1976243,74.4089525 37.4737968,74.3313299 C37.7457074,74.2502953 37.9502796,74.4788981 37.9553939,75.0427283 C37.9613606,75.6057055 37.7610503,75.9707877 37.4865826,76.0518223 L37.4865826,76.0518223 Z" id="Fill-16" fill="#FEFEFE"></path>
                            </g>
                        </g>
                    </g>
                </g>
            </g>
        </g>
    </g>
</svg>