<?xml version="1.0" encoding="utf-8"?>
<!-- Generator: Adobe Illustrator 20.0.0, SVG Export Plug-In . SVG Version: 6.00 Build 0)  -->
<svg version="1.1" id="圖層_1" xmlns="http://www.w3.org/2000/svg" xmlns:xlink="http://www.w3.org/1999/xlink" x="0px" y="0px"
	 viewBox="0 0 31 24" style="enable-background:new 0 0 31 24;" xml:space="preserve">
<style type="text/css">
	.st0{fill:#E0061C;}
</style>
<path id="Fill-1" class="st0" d="M11,1.7c-2.6,0-4.7,2.1-4.7,4.7s2.1,4.7,4.7,4.7s4.7-2.1,4.7-4.7S13.6,1.7,11,1.7 M11,12.8
	c-3.5,0-6.4-2.9-6.4-6.4S7.4,0,11,0s6.4,2.9,6.4,6.4S14.5,12.8,11,12.8"/>
<path id="Combined-Shape_1_" class="st0" d="M17.8,16.4c-1.7-2.2-4.2-3.6-6.8-3.6c-3.7,0-7.1,2.7-8.4,6.6c-0.1,0.4-0.6,0.7-1.1,0.5
	c-0.4-0.1-0.7-0.6-0.5-1.1C2.5,14.2,6.6,11,11,11c2.9,0,5.5,1.3,7.5,3.4C18.2,15.1,17.9,15.7,17.8,16.4z"/>
<path id="Shape" class="st0" d="M24.5,23.4c-3.2,0-5.7-2.6-5.7-5.8s2.6-5.8,5.7-5.8s5.7,2.6,5.7,5.8S27.6,23.4,24.5,23.4L24.5,23.4z
	 M24.5,13.5c-2.3,0-4.1,1.9-4.1,4.2s1.9,4.2,4.1,4.2s4.1-1.9,4.1-4.2S26.7,13.5,24.5,13.5L24.5,13.5z"/>
<path id="Shape_1_" class="st0" d="M24.9,17.1V16c0-0.3-0.2-0.5-0.5-0.5S24,15.8,24,16v1.1h-1.1c-0.3,0-0.5,0.2-0.5,0.5
	s0.2,0.5,0.5,0.5H24v1.1c0,0.3,0.2,0.5,0.5,0.5s0.5-0.2,0.5-0.5v-1.1h1c0.3,0,0.5-0.2,0.5-0.5s-0.2-0.5-0.5-0.5H24.9z"/>
</svg>
